<svg width="419" height="323" viewBox="0 0 419 323"  style="position:absolute; width:100%; height:100%;" fill="none" xmlns="http://www.w3.org/2000/svg">
<path d="M41 23.5L16 3.5L3 23.5L28 41" stroke="#ffffff" stroke-width="4"/>
<path d="M417 320.5V204.5H367C281.333 147 105.3 29.9 86.5 21.5C63 11 42.5 12.5 28.5 42C17.3 65.6 33.1667 86.5 42.5 94C65.1667 107 116.3 136.3 139.5 149.5C162.7 162.7 125.5 191.667 104 204.5H12V246.5V320.5H417Z" stroke="#ffffff" stroke-width="4"/>
<path d="M367.5 204.5H104" stroke="#ffffff" stroke-width="4"/>
<path d="M137.072 287.768C133.061 287.768 129.776 287.043 127.216 285.592C124.656 284.099 122.544 282.2 120.88 279.896L124.784 276.696C126.533 278.872 128.368 280.493 130.288 281.56C132.251 282.627 134.576 283.16 137.264 283.16C140.507 283.16 142.981 282.413 144.688 280.92C146.395 279.427 147.248 277.336 147.248 274.648C147.248 272.472 146.629 270.787 145.392 269.592C144.155 268.355 142 267.48 138.928 266.968L133.936 266.136C131.76 265.752 129.925 265.176 128.432 264.408C126.981 263.64 125.808 262.723 124.912 261.656C124.016 260.547 123.376 259.352 122.992 258.072C122.608 256.749 122.416 255.384 122.416 253.976C122.416 249.88 123.76 246.787 126.448 244.696C129.136 242.605 132.763 241.56 137.328 241.56C140.912 241.56 143.92 242.157 146.352 243.352C148.827 244.547 150.811 246.232 152.304 248.408L148.528 251.672C147.291 250.051 145.797 248.728 144.048 247.704C142.299 246.68 140.037 246.168 137.264 246.168C134.235 246.168 131.909 246.808 130.288 248.088C128.667 249.368 127.856 251.288 127.856 253.848C127.856 255.853 128.453 257.496 129.648 258.776C130.885 260.013 133.083 260.909 136.24 261.464L141.04 262.296C143.216 262.68 145.051 263.256 146.544 264.024C148.037 264.792 149.232 265.709 150.128 266.776C151.067 267.843 151.728 269.037 152.112 270.36C152.496 271.683 152.688 273.069 152.688 274.52C152.688 278.659 151.323 281.901 148.592 284.248C145.904 286.595 142.064 287.768 137.072 287.768ZM162.647 239.64H167.767V259.352H168.023C168.364 258.541 168.791 257.773 169.303 257.048C169.815 256.28 170.434 255.619 171.159 255.064C171.927 254.509 172.823 254.061 173.847 253.72C174.871 253.379 176.066 253.208 177.431 253.208C180.887 253.208 183.66 254.317 185.751 256.536C187.842 258.712 188.887 261.805 188.887 265.816V287H183.767V266.712C183.767 263.683 183.106 261.443 181.783 259.992C180.46 258.499 178.519 257.752 175.959 257.752C174.935 257.752 173.932 257.88 172.951 258.136C171.97 258.392 171.095 258.776 170.327 259.288C169.559 259.8 168.94 260.461 168.471 261.272C168.002 262.083 167.767 263.021 167.767 264.088V287H162.647V239.64ZM215.998 246.68C214.505 246.68 213.459 246.381 212.862 245.784C212.265 245.144 211.966 244.355 211.966 243.416V242.392C211.966 241.453 212.265 240.685 212.862 240.088C213.459 239.448 214.505 239.128 215.998 239.128C217.491 239.128 218.537 239.448 219.134 240.088C219.731 240.685 220.03 241.453 220.03 242.392V243.416C220.03 244.355 219.731 245.144 219.134 245.784C218.537 246.381 217.491 246.68 215.998 246.68ZM201.534 282.648H213.438V258.328H201.534V253.976H218.558V282.648H229.694V287H201.534V282.648ZM238.437 282.648H249.573V258.328H237.797V253.976H249.573V247.192C249.573 244.973 250.149 243.16 251.301 241.752C252.496 240.344 254.352 239.64 256.869 239.64H267.941V243.992H254.693V253.976H267.941V258.328H254.693V282.648H266.469V287H238.437V282.648ZM292.3 287C289.783 287 287.927 286.296 286.732 284.888C285.58 283.48 285.004 281.667 285.004 279.448V258.328H273.996V253.976H282.188C283.297 253.976 284.065 253.763 284.492 253.336C284.961 252.867 285.196 252.077 285.196 250.968V242.328H290.124V253.976H305.164V258.328H290.124V282.648H305.164V287H292.3Z" fill="#808080"/>
</svg>
